<svg xmlns="http://www.w3.org/2000/svg" viewBox="0 0 800 600" role="img" aria-labelledby="t"><title id="t">Tracked rescue robot clearing rubble with a claw</title><rect width="800" height="600" fill="#FFFFFF"/><g stroke="#FFF3B0" stroke-width="1.2" opacity=".75"><line x1="0" y1="0" x2="0" y2="600"/><line x1="40" y1="0" x2="40" y2="600"/><line x1="80" y1="0" x2="80" y2="600"/><line x1="120" y1="0" x2="120" y2="600"/><line x1="160" y1="0" x2="160" y2="600"/><line x1="200" y1="0" x2="200" y2="600"/><line x1="240" y1="0" x2="240" y2="600"/><line x1="280" y1="0" x2="280" y2="600"/><line x1="320" y1="0" x2="320" y2="600"/><line x1="360" y1="0" x2="360" y2="600"/><line x1="400" y1="0" x2="400" y2="600"/><line x1="440" y1="0" x2="440" y2="600"/><line x1="480" y1="0" x2="480" y2="600"/><line x1="520" y1="0" x2="520" y2="600"/><line x1="560" y1="0" x2="560" y2="600"/><line x1="600" y1="0" x2="600" y2="600"/><line x1="640" y1="0" x2="640" y2="600"/><line x1="680" y1="0" x2="680" y2="600"/><line x1="720" y1="0" x2="720" y2="600"/><line x1="760" y1="0" x2="760" y2="600"/><line x1="800" y1="0" x2="800" y2="600"/><line x1="0" y1="0" x2="800" y2="0"/><line x1="0" y1="40" x2="800" y2="40"/><line x1="0" y1="80" x2="800" y2="80"/><line x1="0" y1="120" x2="800" y2="120"/><line x1="0" y1="160" x2="800" y2="160"/><line x1="0" y1="200" x2="800" y2="200"/><line x1="0" y1="240" x2="800" y2="240"/><line x1="0" y1="280" x2="800" y2="280"/><line x1="0" y1="320" x2="800" y2="320"/><line x1="0" y1="360" x2="800" y2="360"/><line x1="0" y1="400" x2="800" y2="400"/><line x1="0" y1="440" x2="800" y2="440"/><line x1="0" y1="480" x2="800" y2="480"/><line x1="0" y1="520" x2="800" y2="520"/><line x1="0" y1="560" x2="800" y2="560"/><line x1="0" y1="600" x2="800" y2="600"/></g><rect x="0" y="470" width="800" height="130" fill="#FFF3B0"/><line x1="0" y1="470" x2="800" y2="470" stroke="#0A0A0A" stroke-width="4"/><rect x="533.5" y="391" width="18" height="11" rx="3" fill="#FACC15" stroke="#0A0A0A" stroke-width="3"/><rect x="578.5" y="391" width="18" height="11" rx="3" fill="#FACC15" stroke="#0A0A0A" stroke-width="3"/><rect x="520" y="400" width="90" height="70" rx="5" fill="#FACC15" stroke="#0A0A0A" stroke-width="4"/><rect x="524.0" y="461" width="82" height="6" rx="2" fill="#0A0A0A" opacity=".12"/><rect x="608.5" y="401" width="18" height="11" rx="3" fill="#FACC15" stroke="#0A0A0A" stroke-width="3"/><rect x="643.5" y="401" width="18" height="11" rx="3" fill="#FACC15" stroke="#0A0A0A" stroke-width="3"/><rect x="600" y="410" width="70" height="60" rx="5" fill="#FACC15" stroke="#0A0A0A" stroke-width="4"/><rect x="604.0" y="461" width="62" height="6" rx="2" fill="#0A0A0A" opacity=".12"/><rect x="571.0" y="341" width="18" height="11" rx="3" fill="#FACC15" stroke="#0A0A0A" stroke-width="3"/><rect x="611.0" y="341" width="18" height="11" rx="3" fill="#FACC15" stroke="#0A0A0A" stroke-width="3"/><rect x="560" y="350" width="80" height="50" rx="5" fill="#FACC15" stroke="#0A0A0A" stroke-width="4"/><rect x="564.0" y="391" width="72" height="6" rx="2" fill="#0A0A0A" opacity=".12"/><rect x="656.0" y="371" width="18" height="11" rx="3" fill="#FFF3B0" stroke="#0A0A0A" stroke-width="3"/><rect x="686.0" y="371" width="18" height="11" rx="3" fill="#FFF3B0" stroke="#0A0A0A" stroke-width="3"/><rect x="650" y="380" width="60" height="90" rx="5" fill="#FFF3B0" stroke="#0A0A0A" stroke-width="4"/><rect x="654.0" y="461" width="52" height="6" rx="2" fill="#0A0A0A" opacity=".12"/><rect x="150" y="380" width="300" height="90" rx="45" fill="#0A0A0A"/><circle cx="190" cy="425" r="20" fill="#FFF3B0" stroke="#0A0A0A" stroke-width="3"/><circle cx="230" cy="425" r="20" fill="#FFF3B0" stroke="#0A0A0A" stroke-width="3"/><circle cx="270" cy="425" r="20" fill="#FFF3B0" stroke="#0A0A0A" stroke-width="3"/><circle cx="310" cy="425" r="20" fill="#FFF3B0" stroke="#0A0A0A" stroke-width="3"/><circle cx="350" cy="425" r="20" fill="#FFF3B0" stroke="#0A0A0A" stroke-width="3"/><circle cx="390" cy="425" r="20" fill="#FFF3B0" stroke="#0A0A0A" stroke-width="3"/><rect x="182.7" y="271" width="18" height="11" rx="3" fill="#FACC15" stroke="#0A0A0A" stroke-width="3"/><rect x="226.0" y="271" width="18" height="11" rx="3" fill="#FACC15" stroke="#0A0A0A" stroke-width="3"/><rect x="269.3" y="271" width="18" height="11" rx="3" fill="#FACC15" stroke="#0A0A0A" stroke-width="3"/><rect x="312.7" y="271" width="18" height="11" rx="3" fill="#FACC15" stroke="#0A0A0A" stroke-width="3"/><rect x="356.0" y="271" width="18" height="11" rx="3" fill="#FACC15" stroke="#0A0A0A" stroke-width="3"/><rect x="399.3" y="271" width="18" height="11" rx="3" fill="#FACC15" stroke="#0A0A0A" stroke-width="3"/><rect x="170" y="280" width="260" height="96" rx="5" fill="#FACC15" stroke="#0A0A0A" stroke-width="4"/><rect x="174.0" y="367" width="252" height="6" rx="2" fill="#0A0A0A" opacity=".12"/><rect x="200" y="300" width="80" height="44" rx="8" fill="#FFFFFF" stroke="#0A0A0A" stroke-width="4"/><path d="M232 310 h16 v10 h10 v16 h-10 v10 h-16 v-10 h-10 v-16 h10z" fill="#FACC15" transform="translate(-2 -6) scale(.95)"/><g stroke="#0A0A0A" stroke-width="5" stroke-linejoin="round"><path d="M410 300 L500 250 L512 270 L424 322Z" fill="#FACC15"/><path d="M500 250 L540 300 L524 312 L490 268Z" fill="#FFF3B0"/><path d="M506 246 L556 268 L548 286 L500 266Z" fill="#FFF3B0"/></g><circle cx="380" cy="250" r="12" fill="#FACC15" stroke="#0A0A0A" stroke-width="3"/><line x1="380" y1="262" x2="380" y2="282" stroke="#0A0A0A" stroke-width="5"/><g opacity=".6"><path d="M392 236 a20 20 0 0 1 0 28" stroke="#FACC15" stroke-width="3" fill="none"/><path d="M400 226 a34 34 0 0 1 0 48" stroke="#FACC15" stroke-width="3" fill="none"/></g><g><rect x="40" y="40" width="193.20000000000002" height="30" rx="8" fill="#FFFFFF" stroke="#0A0A0A" stroke-width="3"/><text x="52" y="60" font-family="Space Grotesk,monospace" font-size="13" font-weight="700" fill="#0A0A0A" letter-spacing="1.5">CLAW GRIP · 0.8 KG</text></g></svg>