<svg xmlns="http://www.w3.org/2000/svg" viewBox="0 0 420 300" role="img" aria-labelledby="t"><title id="t">Stack of building bricks and gears</title><rect x="71.0" y="211" width="18" height="11" rx="3" fill="#FACC15" stroke="#0A0A0A" stroke-width="3"/><rect x="111.0" y="211" width="18" height="11" rx="3" fill="#FACC15" stroke="#0A0A0A" stroke-width="3"/><rect x="151.0" y="211" width="18" height="11" rx="3" fill="#FACC15" stroke="#0A0A0A" stroke-width="3"/><rect x="191.0" y="211" width="18" height="11" rx="3" fill="#FACC15" stroke="#0A0A0A" stroke-width="3"/><rect x="60" y="220" width="160" height="70" rx="5" fill="#FACC15" stroke="#0A0A0A" stroke-width="4"/><rect x="64.0" y="281" width="152" height="6" rx="2" fill="#0A0A0A" opacity=".12"/><rect x="244.3" y="211" width="18" height="11" rx="3" fill="#FACC15" stroke="#0A0A0A" stroke-width="3"/><rect x="291.0" y="211" width="18" height="11" rx="3" fill="#FACC15" stroke="#0A0A0A" stroke-width="3"/><rect x="337.7" y="211" width="18" height="11" rx="3" fill="#FACC15" stroke="#0A0A0A" stroke-width="3"/><rect x="230" y="220" width="140" height="70" rx="5" fill="#FACC15" stroke="#0A0A0A" stroke-width="4"/><rect x="234.0" y="281" width="132" height="6" rx="2" fill="#0A0A0A" opacity=".12"/><rect x="131.0" y="131" width="18" height="11" rx="3" fill="#FACC15" stroke="#0A0A0A" stroke-width="3"/><rect x="171.0" y="131" width="18" height="11" rx="3" fill="#FACC15" stroke="#0A0A0A" stroke-width="3"/><rect x="211.0" y="131" width="18" height="11" rx="3" fill="#FACC15" stroke="#0A0A0A" stroke-width="3"/><rect x="251.0" y="131" width="18" height="11" rx="3" fill="#FACC15" stroke="#0A0A0A" stroke-width="3"/><rect x="120" y="140" width="160" height="70" rx="5" fill="#FACC15" stroke="#0A0A0A" stroke-width="4"/><rect x="124.0" y="201" width="152" height="6" rx="2" fill="#0A0A0A" opacity=".12"/><rect x="181.0" y="51" width="18" height="11" rx="3" fill="#FACC15" stroke="#0A0A0A" stroke-width="3"/><rect x="221.0" y="51" width="18" height="11" rx="3" fill="#FACC15" stroke="#0A0A0A" stroke-width="3"/><rect x="170" y="60" width="80" height="70" rx="5" fill="#FACC15" stroke="#0A0A0A" stroke-width="4"/><rect x="174.0" y="121" width="72" height="6" rx="2" fill="#0A0A0A" opacity=".12"/><polygon points="387.5,126.7 384.2,138.8 375.3,135.0 370.3,143.6 377.8,149.6 368.9,158.3 363.1,150.7 354.4,155.6 358.0,164.5 345.8,167.6 344.7,158.1 334.7,158.0 333.3,167.5 321.2,164.2 325.0,155.3 316.4,150.3 310.4,157.8 301.7,148.9 309.3,143.1 304.4,134.4 295.5,138.0 292.4,125.8 301.9,124.7 302.0,114.7 292.5,113.3 295.8,101.2 304.7,105.0 309.7,96.4 302.2,90.4 311.1,81.7 316.9,89.3 325.6,84.4 322.0,75.5 334.2,72.4 335.3,81.9 345.3,82.0 346.7,72.5 358.8,75.8 355.0,84.7 363.6,89.7 369.6,82.2 378.3,91.1 370.7,96.9 375.6,105.6 384.5,102.0 387.6,114.2 378.1,115.3 378.0,125.3" fill="#FACC15" stroke="#0A0A0A" stroke-width="3" stroke-linejoin="round"/><circle cx="340" cy="120" r="15.36" fill="#FFFFFF" stroke="#0A0A0A" stroke-width="3"/><polygon points="398.0,186.0 396.0,195.9 391.2,194.0 386.7,200.7 390.4,204.4 381.9,210.0 380.0,205.2 372.0,206.8 372.0,212.0 362.1,210.0 364.0,205.2 357.3,200.7 353.6,204.4 348.0,195.9 352.8,194.0 351.2,186.0 346.0,186.0 348.0,176.1 352.8,178.0 357.3,171.3 353.6,167.6 362.1,162.0 364.0,166.8 372.0,165.2 372.0,160.0 381.9,162.0 380.0,166.8 386.7,171.3 390.4,167.6 396.0,176.1 391.2,178.0 392.8,186.0" fill="#FACC15" stroke="#0A0A0A" stroke-width="3" stroke-linejoin="round"/><circle cx="372" cy="186" r="8.32" fill="#FFFFFF" stroke="#0A0A0A" stroke-width="3"/></svg>