<svg xmlns="http://www.w3.org/2000/svg" viewBox="0 0 1000 820" role="img" aria-labelledby="t"><title id="t">Instructor and two children building a robot together in a STEM makerspace</title><rect width="1000" height="820" fill="#FFFFFF"/><g stroke="#FFF3B0" stroke-width="1.2" opacity=".75"><line x1="0" y1="0" x2="0" y2="820"/><line x1="40" y1="0" x2="40" y2="820"/><line x1="80" y1="0" x2="80" y2="820"/><line x1="120" y1="0" x2="120" y2="820"/><line x1="160" y1="0" x2="160" y2="820"/><line x1="200" y1="0" x2="200" y2="820"/><line x1="240" y1="0" x2="240" y2="820"/><line x1="280" y1="0" x2="280" y2="820"/><line x1="320" y1="0" x2="320" y2="820"/><line x1="360" y1="0" x2="360" y2="820"/><line x1="400" y1="0" x2="400" y2="820"/><line x1="440" y1="0" x2="440" y2="820"/><line x1="480" y1="0" x2="480" y2="820"/><line x1="520" y1="0" x2="520" y2="820"/><line x1="560" y1="0" x2="560" y2="820"/><line x1="600" y1="0" x2="600" y2="820"/><line x1="640" y1="0" x2="640" y2="820"/><line x1="680" y1="0" x2="680" y2="820"/><line x1="720" y1="0" x2="720" y2="820"/><line x1="760" y1="0" x2="760" y2="820"/><line x1="800" y1="0" x2="800" y2="820"/><line x1="840" y1="0" x2="840" y2="820"/><line x1="880" y1="0" x2="880" y2="820"/><line x1="920" y1="0" x2="920" y2="820"/><line x1="960" y1="0" x2="960" y2="820"/><line x1="1000" y1="0" x2="1000" y2="820"/><line x1="0" y1="0" x2="1000" y2="0"/><line x1="0" y1="40" x2="1000" y2="40"/><line x1="0" y1="80" x2="1000" y2="80"/><line x1="0" y1="120" x2="1000" y2="120"/><line x1="0" y1="160" x2="1000" y2="160"/><line x1="0" y1="200" x2="1000" y2="200"/><line x1="0" y1="240" x2="1000" y2="240"/><line x1="0" y1="280" x2="1000" y2="280"/><line x1="0" y1="320" x2="1000" y2="320"/><line x1="0" y1="360" x2="1000" y2="360"/><line x1="0" y1="400" x2="1000" y2="400"/><line x1="0" y1="440" x2="1000" y2="440"/><line x1="0" y1="480" x2="1000" y2="480"/><line x1="0" y1="520" x2="1000" y2="520"/><line x1="0" y1="560" x2="1000" y2="560"/><line x1="0" y1="600" x2="1000" y2="600"/><line x1="0" y1="640" x2="1000" y2="640"/><line x1="0" y1="680" x2="1000" y2="680"/><line x1="0" y1="720" x2="1000" y2="720"/><line x1="0" y1="760" x2="1000" y2="760"/><line x1="0" y1="800" x2="1000" y2="800"/></g><rect x="0" y="0" width="1000" height="560" fill="#FFFFFF" opacity="0"/><rect x="60" y="80" width="420" height="250" rx="18" fill="#FFFFFF" stroke="#0A0A0A" stroke-width="4"/><g fill="#0A0A0A" opacity=".18"><circle cx="90" cy="110" r="4"/><circle cx="90" cy="140" r="4"/><circle cx="90" cy="170" r="4"/><circle cx="90" cy="200" r="4"/><circle cx="90" cy="230" r="4"/><circle cx="90" cy="260" r="4"/><circle cx="90" cy="290" r="4"/><circle cx="120" cy="110" r="4"/><circle cx="120" cy="140" r="4"/><circle cx="120" cy="170" r="4"/><circle cx="120" cy="200" r="4"/><circle cx="120" cy="230" r="4"/><circle cx="120" cy="260" r="4"/><circle cx="120" cy="290" r="4"/><circle cx="150" cy="110" r="4"/><circle cx="150" cy="140" r="4"/><circle cx="150" cy="170" r="4"/><circle cx="150" cy="200" r="4"/><circle cx="150" cy="230" r="4"/><circle cx="150" cy="260" r="4"/><circle cx="150" cy="290" r="4"/><circle cx="180" cy="110" r="4"/><circle cx="180" cy="140" r="4"/><circle cx="180" cy="170" r="4"/><circle cx="180" cy="200" r="4"/><circle cx="180" cy="230" r="4"/><circle cx="180" cy="260" r="4"/><circle cx="180" cy="290" r="4"/><circle cx="210" cy="110" r="4"/><circle cx="210" cy="140" r="4"/><circle cx="210" cy="170" r="4"/><circle cx="210" cy="200" r="4"/><circle cx="210" cy="230" r="4"/><circle cx="210" cy="260" r="4"/><circle cx="210" cy="290" r="4"/><circle cx="240" cy="110" r="4"/><circle cx="240" cy="140" r="4"/><circle cx="240" cy="170" r="4"/><circle cx="240" cy="200" r="4"/><circle cx="240" cy="230" r="4"/><circle cx="240" cy="260" r="4"/><circle cx="240" cy="290" r="4"/><circle cx="270" cy="110" r="4"/><circle cx="270" cy="140" r="4"/><circle cx="270" cy="170" r="4"/><circle cx="270" cy="200" r="4"/><circle cx="270" cy="230" r="4"/><circle cx="270" cy="260" r="4"/><circle cx="270" cy="290" r="4"/><circle cx="300" cy="110" r="4"/><circle cx="300" cy="140" r="4"/><circle cx="300" cy="170" r="4"/><circle cx="300" cy="200" r="4"/><circle cx="300" cy="230" r="4"/><circle cx="300" cy="260" r="4"/><circle cx="300" cy="290" r="4"/><circle cx="330" cy="110" r="4"/><circle cx="330" cy="140" r="4"/><circle cx="330" cy="170" r="4"/><circle cx="330" cy="200" r="4"/><circle cx="330" cy="230" r="4"/><circle cx="330" cy="260" r="4"/><circle cx="330" cy="290" r="4"/><circle cx="360" cy="110" r="4"/><circle cx="360" cy="140" r="4"/><circle cx="360" cy="170" r="4"/><circle cx="360" cy="200" r="4"/><circle cx="360" cy="230" r="4"/><circle cx="360" cy="260" r="4"/><circle cx="360" cy="290" r="4"/><circle cx="390" cy="110" r="4"/><circle cx="390" cy="140" r="4"/><circle cx="390" cy="170" r="4"/><circle cx="390" cy="200" r="4"/><circle cx="390" cy="230" r="4"/><circle cx="390" cy="260" r="4"/><circle cx="390" cy="290" r="4"/><circle cx="420" cy="110" r="4"/><circle cx="420" cy="140" r="4"/><circle cx="420" cy="170" r="4"/><circle cx="420" cy="200" r="4"/><circle cx="420" cy="230" r="4"/><circle cx="420" cy="260" r="4"/><circle cx="420" cy="290" r="4"/><circle cx="450" cy="110" r="4"/><circle cx="450" cy="140" r="4"/><circle cx="450" cy="170" r="4"/><circle cx="450" cy="200" r="4"/><circle cx="450" cy="230" r="4"/><circle cx="450" cy="260" r="4"/><circle cx="450" cy="290" r="4"/></g><polygon points="174.0,160.0 172.3,170.5 165.9,168.4 162.0,176.0 167.5,180.0 160.0,187.5 156.0,182.0 148.4,185.9 150.5,192.3 140.0,194.0 140.0,187.2 131.6,185.9 129.5,192.3 120.0,187.5 124.0,182.0 118.0,176.0 112.5,180.0 107.7,170.5 114.1,168.4 112.8,160.0 106.0,160.0 107.7,149.5 114.1,151.6 118.0,144.0 112.5,140.0 120.0,132.5 124.0,138.0 131.6,134.1 129.5,127.7 140.0,126.0 140.0,132.8 148.4,134.1 150.5,127.7 160.0,132.5 156.0,138.0 162.0,144.0 167.5,140.0 172.3,149.5 165.9,151.6 167.2,160.0" fill="#FACC15" stroke="#0A0A0A" stroke-width="3" stroke-linejoin="round"/><circle cx="140" cy="160" r="10.88" fill="#FFFFFF" stroke="#0A0A0A" stroke-width="3"/><polygon points="217.3,201.7 213.5,209.4 210.0,206.7 204.8,211.2 207.0,215.1 198.9,217.8 198.3,213.4 191.4,213.0 190.3,217.3 182.6,213.5 185.3,210.0 180.8,204.8 176.9,207.0 174.2,198.9 178.6,198.3 179.0,191.4 174.7,190.3 178.5,182.6 182.0,185.3 187.2,180.8 185.0,176.9 193.1,174.2 193.7,178.6 200.6,179.0 201.7,174.7 209.4,178.5 206.7,182.0 211.2,187.2 215.1,185.0 217.8,193.1 213.4,193.7 213.0,200.6" fill="#FACC15" stroke="#0A0A0A" stroke-width="3" stroke-linejoin="round"/><circle cx="196" cy="196" r="7.04" fill="#FFFFFF" stroke="#0A0A0A" stroke-width="3"/><g stroke="#0A0A0A" stroke-width="4" fill="none"><path d="M270 120 v80 M262 120 h16"/><circle cx="270" cy="216" r="14" fill="#FACC15"/></g><rect x="320" y="120" width="120" height="80" rx="10" fill="#0A0A0A"/><text x="334" y="150" font-family="Space Grotesk,monospace" font-size="13" font-weight="700" fill="#FACC15" letter-spacing="1.5">TODAY:</text><text x="334" y="172" font-family="Space Grotesk,monospace" font-size="13" font-weight="700" fill="#FFFFFF" letter-spacing="1.5">BUILD A</text><text x="334" y="192" font-family="Space Grotesk,monospace" font-size="13" font-weight="700" fill="#FFFFFF" letter-spacing="1.5">ROVER</text><rect x="60" y="300" width="420" height="16" fill="#FACC15" stroke="#0A0A0A" stroke-width="4"/><rect x="96.0" y="241" width="18" height="11" rx="3" fill="#FACC15" stroke="#0A0A0A" stroke-width="3"/><rect x="126.0" y="241" width="18" height="11" rx="3" fill="#FACC15" stroke="#0A0A0A" stroke-width="3"/><rect x="90" y="250" width="60" height="50" rx="5" fill="#FACC15" stroke="#0A0A0A" stroke-width="4"/><rect x="94.0" y="291" width="52" height="6" rx="2" fill="#0A0A0A" opacity=".12"/><rect x="171.0" y="251" width="18" height="11" rx="3" fill="#FACC15" stroke="#0A0A0A" stroke-width="3"/><rect x="211.0" y="251" width="18" height="11" rx="3" fill="#FACC15" stroke="#0A0A0A" stroke-width="3"/><rect x="160" y="260" width="80" height="40" rx="5" fill="#FACC15" stroke="#0A0A0A" stroke-width="4"/><rect x="164.0" y="291" width="72" height="6" rx="2" fill="#0A0A0A" opacity=".12"/><rect x="266.0" y="231" width="18" height="11" rx="3" fill="#FACC15" stroke="#0A0A0A" stroke-width="3"/><rect x="250" y="240" width="50" height="60" rx="5" fill="#FACC15" stroke="#0A0A0A" stroke-width="4"/><rect x="254.0" y="291" width="42" height="6" rx="2" fill="#0A0A0A" opacity=".12"/><rect x="317.7" y="247" width="18" height="11" rx="3" fill="#FACC15" stroke="#0A0A0A" stroke-width="3"/><rect x="351.0" y="247" width="18" height="11" rx="3" fill="#FACC15" stroke="#0A0A0A" stroke-width="3"/><rect x="384.3" y="247" width="18" height="11" rx="3" fill="#FACC15" stroke="#0A0A0A" stroke-width="3"/><rect x="310" y="256" width="100" height="44" rx="5" fill="#FACC15" stroke="#0A0A0A" stroke-width="4"/><rect x="314.0" y="291" width="92" height="6" rx="2" fill="#0A0A0A" opacity=".12"/><rect x="560" y="80" width="360" height="250" rx="18" fill="#FFF3B0" stroke="#0A0A0A" stroke-width="4"/><line x1="740" y1="80" x2="740" y2="330" stroke="#0A0A0A" stroke-width="4"/><line x1="560" y1="205" x2="920" y2="205" stroke="#0A0A0A" stroke-width="4"/><circle cx="650" cy="150" r="30" fill="#FACC15" stroke="#0A0A0A" stroke-width="3"/><path d="M560 300 Q640 250 740 300 T920 290 V330 H560Z" fill="#FACC15" stroke="#0A0A0A" stroke-width="3"/><g transform="translate(190,650) scale(1.5)"><path d="M-62 0 C-62 -70 -46 -100 0 -100 C46 -100 62 -70 62 0 Z" fill="#FACC15" stroke="#0A0A0A" stroke-width="4"/><rect x="-14" y="-120" width="28" height="26" fill="#505050" stroke="#0A0A0A" stroke-width="4"/><circle cx="12" cy="-158" r="42" fill="#505050" stroke="#0A0A0A" stroke-width="4"/><path d="M-30 -160 C-32 -200 56 -206 54 -160 C42 -178 2 -186 -30 -160Z" fill="#0A0A0A" stroke="#0A0A0A" stroke-width="4" stroke-linejoin="round"/><circle cx="2.799999999999997" cy="-156" r="4.5" fill="#0A0A0A"/><circle cx="30.799999999999997" cy="-156" r="4.5" fill="#0A0A0A"/><path d="M4.799999999999997 -138 Q16.799999999999997 -128 28.799999999999997 -138" stroke="#0A0A0A" stroke-width="4" fill="none" stroke-linecap="round"/></g><g transform="translate(800,650) scale(1.45)"><path d="M-62 0 C-62 -70 -46 -100 0 -100 C46 -100 62 -70 62 0 Z" fill="#FACC15" stroke="#0A0A0A" stroke-width="4"/><rect x="-14" y="-120" width="28" height="26" fill="#FACC15" stroke="#0A0A0A" stroke-width="4"/><circle cx="-12" cy="-158" r="42" fill="#FACC15" stroke="#0A0A0A" stroke-width="4"/><path d="M-56 -150 C-62 -210 38 -210 32 -150 L36 -100 L18 -110 C22 -150 8 -176 -18 -180 C-32 -170 -46 -160 -42 -110 L-60 -100Z" fill="#0A0A0A" stroke="#0A0A0A" stroke-width="4" stroke-linejoin="round"/><circle cx="-30.799999999999997" cy="-156" r="4.5" fill="#0A0A0A"/><circle cx="-2.799999999999997" cy="-156" r="4.5" fill="#0A0A0A"/><path d="M-28.799999999999997 -138 Q-16.799999999999997 -128 -4.799999999999997 -138" stroke="#0A0A0A" stroke-width="4" fill="none" stroke-linecap="round"/></g><g transform="translate(520,640) scale(1.62)"><path d="M-62 0 C-62 -70 -46 -100 0 -100 C46 -100 62 -70 62 0 Z" fill="#3D3D3D" stroke="#0A0A0A" stroke-width="4"/><rect x="-14" y="-120" width="28" height="26" fill="#E0AC69" stroke="#0A0A0A" stroke-width="4"/><circle cx="-6" cy="-158" r="42" fill="#E0AC69" stroke="#0A0A0A" stroke-width="4"/><circle cx="-6" cy="-206" r="16" fill="#292929" stroke="#0A0A0A" stroke-width="4"/><path d="M-48 -158 C-50 -204 38 -204 36 -158 C14 -176 -26 -176 -48 -158Z" fill="#292929" stroke="#0A0A0A" stroke-width="4"/><circle cx="-22.4" cy="-156" r="4.5" fill="#0A0A0A"/><circle cx="5.600000000000001" cy="-156" r="4.5" fill="#0A0A0A"/><path d="M-20.4 -138 Q-8.399999999999999 -128 3.6000000000000014 -138" stroke="#0A0A0A" stroke-width="4" fill="none" stroke-linecap="round"/></g><rect x="10" y="630" width="980" height="60" rx="14" fill="#FACC15" stroke="#0A0A0A" stroke-width="4"/><rect x="10" y="672" width="980" height="18" fill="#0A0A0A" opacity=".15"/><rect x="80" y="688" width="30" height="200" fill="#0A0A0A"/><rect x="890" y="688" width="30" height="200" fill="#0A0A0A"/><rect x="122" y="590" width="36" height="50" rx="15" fill="#FACC15" stroke="#0A0A0A" stroke-width="4"/><rect x="232" y="590" width="36" height="50" rx="15" fill="#FACC15" stroke="#0A0A0A" stroke-width="4"/><rect x="732" y="590" width="36" height="50" rx="15" fill="#FACC15" stroke="#0A0A0A" stroke-width="4"/><rect x="842" y="590" width="36" height="50" rx="15" fill="#FACC15" stroke="#0A0A0A" stroke-width="4"/><rect x="452" y="590" width="36" height="50" rx="15" fill="#3D3D3D" stroke="#0A0A0A" stroke-width="4"/><g transform="translate(270,636) scale(1.15)"><line x1="60" y1="-150" x2="60" y2="-178" stroke="#0A0A0A" stroke-width="4"/><circle cx="60" cy="-182" r="8" fill="#FACC15" stroke="#0A0A0A" stroke-width="3"/><rect x="10" y="-152" width="100" height="70" rx="16" fill="#FACC15" stroke="#0A0A0A" stroke-width="4"/><rect x="22" y="-140" width="76" height="44" rx="10" fill="#0A0A0A"/><circle cx="44" cy="-118" r="8" fill="#FACC15"/><circle cx="76" cy="-118" r="8" fill="#FACC15"/><rect x="0" y="-80" width="120" height="58" rx="10" fill="#FACC15" stroke="#0A0A0A" stroke-width="4"/><rect x="14" y="-68" width="26" height="12" rx="3" fill="#0A0A0A" opacity=".2"/><circle cx="96" cy="-56" r="7" fill="#FACC15" stroke="#0A0A0A" stroke-width="3"/><circle cx="22" cy="-14" r="18" fill="#0A0A0A"/><circle cx="22" cy="-14" r="9.9" fill="#FACC15" stroke="#0A0A0A" stroke-width="3"/><circle cx="22" cy="-14" r="2.88" fill="#0A0A0A"/><circle cx="98" cy="-14" r="18" fill="#0A0A0A"/><circle cx="98" cy="-14" r="9.9" fill="#FACC15" stroke="#0A0A0A" stroke-width="3"/><circle cx="98" cy="-14" r="2.88" fill="#0A0A0A"/></g><g transform="translate(580,548) rotate(-7)"><rect width="200" height="120" rx="14" fill="#0A0A0A"/><rect x="10" y="10" width="180" height="100" rx="8" fill="#282828"/><rect x="22" y="24" width="63" height="12" rx="4" fill="#FACC15"/><rect x="22" y="44" width="84" height="12" rx="4" fill="#FACC15"/><rect x="42" y="64" width="49" height="12" rx="4" fill="#FFF3B0"/><rect x="42" y="84" width="70" height="12" rx="4" fill="#FACC15"/></g><rect x="50.0" y="581" width="18" height="11" rx="3" fill="#FACC15" stroke="#0A0A0A" stroke-width="3"/><rect x="88.0" y="581" width="18" height="11" rx="3" fill="#FACC15" stroke="#0A0A0A" stroke-width="3"/><rect x="40" y="590" width="76" height="40" rx="5" fill="#FACC15" stroke="#0A0A0A" stroke-width="4"/><rect x="44.0" y="621" width="68" height="6" rx="2" fill="#0A0A0A" opacity=".12"/><rect x="117.0" y="547" width="18" height="11" rx="3" fill="#FACC15" stroke="#0A0A0A" stroke-width="3"/><rect x="100" y="556" width="52" height="34" rx="5" fill="#FACC15" stroke="#0A0A0A" stroke-width="4"/><rect x="104.0" y="581" width="44" height="6" rx="2" fill="#0A0A0A" opacity=".12"/><rect x="828.5" y="585" width="18" height="11" rx="3" fill="#FACC15" stroke="#0A0A0A" stroke-width="3"/><rect x="863.5" y="585" width="18" height="11" rx="3" fill="#FACC15" stroke="#0A0A0A" stroke-width="3"/><rect x="820" y="594" width="70" height="36" rx="5" fill="#FACC15" stroke="#0A0A0A" stroke-width="4"/><rect x="824.0" y="621" width="62" height="6" rx="2" fill="#0A0A0A" opacity=".12"/><rect x="906.0" y="561" width="18" height="11" rx="3" fill="#FACC15" stroke="#0A0A0A" stroke-width="3"/><rect x="936.0" y="561" width="18" height="11" rx="3" fill="#FACC15" stroke="#0A0A0A" stroke-width="3"/><rect x="900" y="570" width="60" height="60" rx="5" fill="#FACC15" stroke="#0A0A0A" stroke-width="4"/><rect x="904.0" y="621" width="52" height="6" rx="2" fill="#0A0A0A" opacity=".12"/><polygon points="490.0,612.0 488.5,619.7 484.8,618.1 481.3,623.3 484.1,626.1 477.7,630.5 476.1,626.8 470.0,628.0 470.0,632.0 462.3,630.5 463.9,626.8 458.7,623.3 455.9,626.1 451.5,619.7 455.2,618.1 454.0,612.0 450.0,612.0 451.5,604.3 455.2,605.9 458.7,600.7 455.9,597.9 462.3,593.5 463.9,597.2 470.0,596.0 470.0,592.0 477.7,593.5 476.1,597.2 481.3,600.7 484.1,597.9 488.5,604.3 484.8,605.9 486.0,612.0" fill="#FACC15" stroke="#0A0A0A" stroke-width="3" stroke-linejoin="round"/><circle cx="470" cy="612" r="6.4" fill="#FFFFFF" stroke="#0A0A0A" stroke-width="3"/><g fill="none" stroke="#FACC15" stroke-width="3" opacity="0.4" stroke-linecap="round"><path d="M820 380 h60 l20 20 h70"/><path d="M820 410 h30 l20 -20"/><path d="M900 400 v40 h50"/><circle cx="970" cy="400" r="6" fill="#FACC15"/><circle cx="950" cy="440" r="6" fill="#FACC15"/></g></svg>